<svg id="Layer_1" data-name="Layer 1" xmlns="http://www.w3.org/2000/svg" xmlns:xlink="http://www.w3.org/1999/xlink" viewBox="0 0 50 50"><defs><style>.cls-1{fill:#2d4de1;}.cls-2{fill:#fff;}.cls-3{fill:url(#linear-gradient);}.cls-4{fill:url(#linear-gradient-2);}.cls-5{fill:url(#linear-gradient-3);}</style><linearGradient id="linear-gradient" x1="4256.28" y1="166.01" x2="4264.89" y2="166.01" gradientTransform="translate(4277.17 197.17) rotate(180)" gradientUnits="userSpaceOnUse"><stop offset="0.08" stop-color="#fff"/><stop offset="1"/></linearGradient><linearGradient id="linear-gradient-2" x1="-238.04" y1="162.99" x2="-229.07" y2="162.99" gradientTransform="matrix(1, 0, 0, -1, 266.75, 197.17)" xlink:href="#linear-gradient"/><linearGradient id="linear-gradient-3" x1="1900.98" y1="-2024.15" x2="1909.52" y2="-2024.15" gradientTransform="matrix(0, 1, 1, 0, 2048.22, -1873.76)" gradientUnits="userSpaceOnUse"><stop offset="0.08" stop-color="#fff"/><stop offset="0.62"/></linearGradient></defs><title>Footer Logo 50 X 50</title><path class="cls-1" d="M44,32.56v-14a7.26,7.26,0,0,0-3.63-6.28l-12.15-7a7.27,7.27,0,0,0-7.25,0l-12.15,7a7.24,7.24,0,0,0-3.63,6.28v14a7.25,7.25,0,0,0,3.63,6.28l12.15,7a7.23,7.23,0,0,0,7.25,0l12.15-7A7.27,7.27,0,0,0,44,32.56Z"/><path class="cls-2" d="M26.22,29.84,21,17.88,13.85,35a.47.47,0,0,0,.43.65h2.53l1.32-3.06h6L23,29.94Zm-6.87-.12,1.75-4,1.65,4Z"/><path class="cls-2" d="M22.57,14.25l1.68-3.73a.34.34,0,0,1,.63,0l10,23.74a1.07,1.07,0,0,1-1,1.49H25.42L24.09,32.6h6.16Z"/><polygon class="cls-3" points="19.35 29.72 20.89 29.71 20.61 32.6 18.13 32.6 19.35 29.72"/><polygon class="cls-4" points="30.25 32.6 28.71 32.59 29.02 35.76 31.58 35.76 30.25 32.6"/><polygon class="cls-5" points="26.22 29.84 25.09 27.22 21.93 27.72 22.84 29.95 26.22 29.84"/></svg>