<svg id="Layer_1" data-name="Layer 1" xmlns="http://www.w3.org/2000/svg" viewBox="0 0 50 50"><defs><style>.cls-1{fill:#00c7ff;}.cls-2{fill:#0072cd;}.cls-3{fill:#0072cb;}</style></defs><title>Footer Logo 50 X 50</title><path class="cls-1" d="M10.61,9.8H.87v9.07S2.29,10.24,10.61,9.8Z"/><path class="cls-2" d="M1,40.91V21C1,19,2.91,9.92,12.09,9.92H15.9c7.29,0,11.29,7.19,11.29,12.11V40.91H19.72V22.72c0-2.22-1.16-5.14-6-5.14s-5.54,4-5.54,5.64V40.91Z"/><polygon class="cls-3" points="39.91 11.48 34.36 19.79 28.34 11.48 19.76 11.48 29.83 25.89 19.76 40.91 28.56 40.91 34.31 32.3 39.91 40.91 49.13 40.91 38.81 26.2 49.13 11.48 39.91 11.48"/><path class="cls-1" d="M27.19,22v.08L19.76,11.48h1.61A13.23,13.23,0,0,1,27.19,22Z"/><path class="cls-1" d="M27.19,29.82V40.91H19.76Z"/></svg>