<svg xmlns="http://www.w3.org/2000/svg" xmlns:xlink="http://www.w3.org/1999/xlink" viewBox="0 0 500 450"><defs><style>.cls-1{isolation:isolate;}.cls-2{fill:url(#linear-gradient);}.cls-3{fill:#e6e4e5;mix-blend-mode:color-burn;}.cls-3,.cls-31{opacity:0.5;}.cls-34,.cls-35,.cls-36,.cls-37,.cls-4,.cls-5,.cls-6{opacity:0.11;}.cls-4{fill:url(#linear-gradient-2);}.cls-5{fill:url(#linear-gradient-3);}.cls-6{fill:url(#linear-gradient-4);}.cls-7{fill:#bcbec0;}.cls-8{fill:#0562e8;}.cls-9{fill:#f1f2f2;}.cls-10{fill:#5294f3;}.cls-11{fill:#d1d3d4;}.cls-12{fill:#a7a9ac;}.cls-13{fill:#F99316;}.cls-14{fill:#fff;}.cls-15{fill:#32b44a;}.cls-16,.cls-17,.cls-18,.cls-19,.cls-26,.cls-27,.cls-28,.cls-30,.cls-31,.cls-33{fill:none;stroke-miterlimit:10;}.cls-16,.cls-17{stroke:#F99316;}.cls-16,.cls-17,.cls-18,.cls-19{stroke-width:1.07px;}.cls-16,.cls-19{stroke-dasharray:3.74 5.34;}.cls-18,.cls-19{stroke:#8fbbef;}.cls-20{fill:#d7e8fc;}.cls-21{fill:#8cb8ed;}.cls-22{fill:#bacbdb;}.cls-23{fill:#69b1ff;}.cls-24{fill:#bbdcff;}.cls-25{fill:#3589ed;}.cls-26{stroke:#0562e8;}.cls-26,.cls-27,.cls-28,.cls-30,.cls-31,.cls-33{stroke-linecap:round;stroke-width:1.6px;}.cls-27{stroke:#bcbec0;}.cls-28,.cls-31,.cls-33{stroke:#d1d3d4;}.cls-29{fill:#e9eef4;}.cls-30{stroke:#3dba85;}.cls-32{fill:#e1ecf8;}.cls-33{opacity:0.25;}.cls-34{fill:url(#linear-gradient-5);}.cls-35{fill:url(#linear-gradient-6);}.cls-36{fill:url(#linear-gradient-7);}.cls-37{fill:url(#linear-gradient-8);}</style><linearGradient id="linear-gradient" x1="252.5" y1="1466.41" x2="248.27" y2="-630.62" gradientUnits="userSpaceOnUse"><stop offset="0" stop-color="#0562e8"/><stop offset="1" stop-color="#4c9aff"/></linearGradient><linearGradient id="linear-gradient-2" x1="76.96" y1="177.1" x2="295.57" y2="177.1" gradientUnits="userSpaceOnUse"><stop offset="0" stop-color="#fff"/><stop offset="1" stop-color="#d1d3d4"/></linearGradient><linearGradient id="linear-gradient-3" x1="222.57" y1="212.63" x2="441.18" y2="212.63" xlink:href="#linear-gradient-2"/><linearGradient id="linear-gradient-4" x1="122.79" y1="299.94" x2="341.4" y2="299.94" xlink:href="#linear-gradient-2"/><linearGradient id="linear-gradient-5" x1="307.71" y1="57.84" x2="341.88" y2="57.84" xlink:href="#linear-gradient-2"/><linearGradient id="linear-gradient-6" x1="354.93" y1="394.1" x2="371.21" y2="394.1" xlink:href="#linear-gradient-2"/><linearGradient id="linear-gradient-7" x1="68.82" y1="297.86" x2="85.1" y2="297.86" xlink:href="#linear-gradient-2"/><linearGradient id="linear-gradient-8" x1="76.96" y1="303.62" x2="88.47" y2="303.62" xlink:href="#linear-gradient-2"/></defs><title>Popup_001-01-01</title><g class="cls-1"><g id="Layer_1" data-name="Layer 1"><rect class="cls-2" width="500" height="450"/><rect class="cls-3" width="500" height="450"/><circle class="cls-4" cx="186.26" cy="177.1" r="109.31"/><circle class="cls-5" cx="331.88" cy="212.63" r="109.31"/><circle class="cls-6" cx="232.09" cy="299.94" r="109.31"/><path class="cls-7" d="M180.52,127H317.19a6.86,6.86,0,0,1,6.86,6.86v132a7.54,7.54,0,0,1-7.54,7.54H181.19a7.54,7.54,0,0,1-7.54-7.54v-132A6.86,6.86,0,0,1,180.52,127Z"/><path class="cls-8" d="M182.11,123.73H309.93A10.06,10.06,0,0,1,320,133.79v0a0,0,0,0,1,0,0H172.05a0,0,0,0,1,0,0v0a10.06,10.06,0,0,1,10.06-10.06Z"/><path class="cls-9" d="M172.05,133.79H320a0,0,0,0,1,0,0V263.13a7.48,7.48,0,0,1-7.48,7.48h-133a7.48,7.48,0,0,1-7.48-7.48V133.79A0,0,0,0,1,172.05,133.79Z"/><circle class="cls-9" cx="297.23" cy="129.29" r="2.28"/><circle class="cls-9" cx="303.78" cy="129.29" r="2.28"/><circle class="cls-9" cx="310.33" cy="129.29" r="2.28"/><rect class="cls-10" x="178.96" y="141.33" width="32.45" height="33.15"/><rect class="cls-11" x="216.38" y="141.33" width="55.38" height="4.9"/><rect class="cls-11" x="278.37" y="141.33" width="34.87" height="4.9"/><rect class="cls-11" x="216.38" y="150.75" width="41.07" height="4.9"/><rect class="cls-11" x="264.06" y="150.75" width="49.18" height="4.9"/><rect class="cls-11" x="216.38" y="160.17" width="65.94" height="4.9"/><rect class="cls-11" x="288.94" y="160.17" width="24.31" height="4.9"/><rect class="cls-11" x="216.38" y="169.58" width="21.07" height="4.9"/><rect class="cls-11" x="244.07" y="169.58" width="69.18" height="4.9"/><rect class="cls-11" x="180.96" y="204.14" width="74.77" height="5.22"/><rect class="cls-11" x="264.67" y="204.14" width="47.09" height="5.22"/><rect class="cls-11" x="180.96" y="214.18" width="55.45" height="5.22"/><rect class="cls-11" x="245.35" y="214.18" width="66.41" height="5.22"/><rect class="cls-11" x="180.96" y="224.22" width="89.04" height="5.22"/><rect class="cls-11" x="278.93" y="224.22" width="32.82" height="5.22"/><rect class="cls-11" x="180.96" y="234.25" width="38.9" height="5.22"/><rect class="cls-11" x="228.55" y="234.25" width="41.44" height="5.22"/><rect class="cls-11" x="180.96" y="244.81" width="89.04" height="5.22"/><rect class="cls-11" x="180.96" y="255.35" width="65.9" height="5.22"/><rect class="cls-12" x="273.71" y="255.35" width="5.22" height="5.22"/><rect class="cls-12" x="264.67" y="255.35" width="5.22" height="5.22"/><rect class="cls-12" x="255.63" y="255.35" width="5.22" height="5.22"/><rect class="cls-8" x="180.96" y="182.92" width="130.8" height="0.6" rx="0.3"/><rect class="cls-13" x="233.25" y="186.96" width="25.54" height="3.84"/><rect class="cls-13" x="216.05" y="195.3" width="59.94" height="3.84"/><rect class="cls-8" x="282.41" y="232.65" width="20.27" height="2.09"/><rect class="cls-8" x="282.41" y="258.48" width="20.27" height="2.09"/><rect class="cls-8" x="291.26" y="233.7" width="2.46" height="25.83"/><path class="cls-11" d="M329.15,140.08V248.83h-7.8V140.08c0-.13,0-.26,0-.4l.06-.38c0-.13.06-.25.1-.38v0a.93.93,0,0,1,.1-.26,3.89,3.89,0,0,1,6.37-1.32A3.92,3.92,0,0,1,329.15,140.08Z"/><path class="cls-12" d="M326.37,142.45V248.83h-5V140.08c0-.13,0-.26,0-.4l.06-.38c0-.13.06-.25.1-.38v0a1.34,1.34,0,0,1,.09-.26h0a3.68,3.68,0,0,1,.82-.09,3.91,3.91,0,0,1,3.91,3.9Z"/><rect class="cls-14" x="321.35" y="142.15" width="7.8" height="3.86"/><rect class="cls-13" x="321.35" y="142.88" width="7.8" height="2.4"/><polygon class="cls-15" points="321.35 248.83 329.15 248.83 325.25 258.48 321.35 248.83"/><polygon class="cls-7" points="326.16 256.23 324.34 256.23 325.25 258.56 326.16 256.23"/><path class="cls-16" d="M299.51,274.8s-20.43,63-79.65,55.47S101.94,238.93,144.13,202.2c0,0,5-5,15.05-5"/><path class="cls-17" d="M158.5,201.37v-7.61a.44.44,0,0,1,.65-.39l6.63,3.56a.44.44,0,0,1,0,.77l-6.63,4.05A.44.44,0,0,1,158.5,201.37Z"/><path class="cls-18" d="M250.66,284.5h-7.61a.45.45,0,0,1-.4-.65l3.57-6.64a.45.45,0,0,1,.77,0l4,6.63A.45.45,0,0,1,250.66,284.5Z"/><path class="cls-19" d="M319,130.25s39.61-1.35,47.76,16-31.24,81-24.08,100,43.5,62.71,17.81,75.87-48.21-16.62-36.64-24.92,19.44,45.87-31.39,49.36S246.85,285,246.85,285"/><rect class="cls-10" x="211.21" y="297.86" width="44.42" height="24.11"/><path class="cls-20" d="M215.66,301.1h40a0,0,0,0,1,0,0v17.63a0,0,0,0,1,0,0H215.25a0,0,0,0,1,0,0V301.52A.42.42,0,0,1,215.66,301.1Z"/><rect class="cls-21" x="141.34" y="297.86" width="69.86" height="24.23"/><rect class="cls-8" x="141.34" y="297.86" width="69.86" height="4.99"/><path class="cls-22" d="M215.65,301.1h40a0,0,0,0,1,0,0v1.75a0,0,0,0,1,0,0H215.25a0,0,0,0,1,0,0v-1.34A.41.41,0,0,1,215.65,301.1Z"/><polygon class="cls-13" points="250.09 301.1 250.09 310.87 245.3 307.22 240.28 311.04 240.28 301.1 250.09 301.1"/><rect class="cls-23" x="186.38" y="324.6" width="75.59" height="19"/><path class="cls-8" d="M187.6,322.09h75.25a1.16,1.16,0,0,1,1.16,1.16v.19a1.16,1.16,0,0,1-1.16,1.16H187.6a0,0,0,0,1,0,0v-2.51A0,0,0,0,1,187.6,322.09Z"/><rect class="cls-24" x="137.45" y="324.2" width="48.93" height="19.8"/><path class="cls-8" d="M187.6,343.6h75.25a1.16,1.16,0,0,1,1.16,1.16V345a1.16,1.16,0,0,1-1.16,1.16H187.6a0,0,0,0,1,0,0V343.6A0,0,0,0,1,187.6,343.6Z"/><path class="cls-25" d="M138,325.46v17.28a.86.86,0,0,0,.86.86H187.6v2.51H137.93a2.5,2.5,0,0,1-2.49-2.5v-19a2.5,2.5,0,0,1,2.49-2.5H187.6v2.51H138.81A.86.86,0,0,0,138,325.46Z"/><path class="cls-26" d="M249.27,297.06s-73,1.39-94.13-6.68"/><path class="cls-27" d="M251.62,294.31s-72.92,2.81-94.24-4.85"/><path class="cls-28" d="M247.3,293.28s-73,1.46-94.13-6.6"/><path class="cls-29" d="M382.21,347.48s-34.83-16-47.14-35.41l-38,4.35s6.91,33,39.57,44.21Z"/><line class="cls-30" x1="311.17" y1="322.51" x2="333.24" y2="319.41"/><line class="cls-27" x1="316.46" y1="325.92" x2="333.66" y2="323.41"/><line class="cls-28" x1="325.06" y1="330.03" x2="331.02" y2="328.91"/><line class="cls-28" x1="333.03" y1="333.05" x2="338.81" y2="332.32"/><line class="cls-31" x1="337.84" y1="335.08" x2="345.91" y2="333.99"/><line class="cls-31" x1="336.54" y1="349.37" x2="357.73" y2="342.37"/><line class="cls-31" x1="337.7" y1="355.83" x2="360.19" y2="348.75"/><path class="cls-32" d="M254.13,321.06s20.73,10.23,25.84,17.75,18.46,16.9,32.24,17.33l46-20.17s-28-5.11-52.82-26.83Z"/><line class="cls-30" x1="264.79" y1="322.79" x2="298.92" y2="314.43"/><line class="cls-27" x1="271.21" y1="325.64" x2="292.72" y2="319.72"/><line class="cls-27" x1="282.84" y1="325.78" x2="309.78" y2="318.61"/><line class="cls-28" x1="278.73" y1="331.35" x2="300.29" y2="325.15"/><line class="cls-28" x1="282.98" y1="335.94" x2="320.15" y2="324.6"/><line class="cls-33" x1="288.89" y1="340.05" x2="317.51" y2="330.9"/><line class="cls-33" x1="299.48" y1="341.65" x2="329.41" y2="330.9"/><line class="cls-33" x1="303.2" y1="346.11" x2="325.24" y2="337.75"/><circle class="cls-34" cx="324.79" cy="57.84" r="17.08"/><circle class="cls-35" cx="363.07" cy="394.1" r="8.14"/><circle class="cls-36" cx="76.96" cy="297.86" r="8.14"/><circle class="cls-37" cx="82.72" cy="303.62" r="5.76"/></g></g></svg>